<?xml version="1.0" encoding="utf-8"?>
<svg viewBox="206 128 182 111" xmlns="http://www.w3.org/2000/svg">
  <defs>
    <style id="bx-google-fonts">@import url(https://fonts.googleapis.com/css?family=Aldrich:400);</style>
    <linearGradient id="gradient-2" gradientUnits="userSpaceOnUse" x1="296.027" y1="141.155" x2="296.027" y2="224.005" gradientTransform="matrix(0.998811, 0.04875, -0.047874, 0.98085, 11.076049, -10.141835)">
      <stop offset="0" style="stop-color: rgba(0, 0, 0, 1)"/>
      <stop offset="1" style="stop-color: rgb(255, 255, 255);"/>
    </linearGradient>
    <linearGradient id="gradient-3" gradientUnits="userSpaceOnUse" x1="297.219" y1="168.422" x2="297.219" y2="201.906" gradientTransform="matrix(0.867306, 0.497773, -0.900255, 1.568582, 221.205892, -262.747714)">
      <stop offset="0" style="stop-color: rgba(64, 191, 255, 1)"/>
      <stop offset="1" style="stop-color: rgba(0, 144, 217, 1)"/>
    </linearGradient>
  </defs>
  <path d="M 331.912 212.997 C 326.288 212.997 319.672 210.804 314.477 212.376 C 309.656 213.834 307.027 219.363 301.656 220.447 C 286.292 223.546 271.555 219.826 256.53 219.826 C 249.014 219.826 238.236 224.005 230.89 220.447 C 216.255 213.36 221.854 196.022 220.121 181.333 C 219.501 176.079 219.095 171.287 219.095 165.81 C 219.095 161.176 216.963 147.454 221.66 145.321 C 225.39 143.628 230.204 144.319 233.967 144.08 C 242.897 143.511 252.285 141.155 261.145 144.08 C 274.492 148.487 287.209 156.441 301.144 157.739 C 317.688 159.28 334.781 157.739 351.398 157.739 C 356.18 157.739 367.016 155.087 371.397 157.739 C 373.414 158.959 373.601 163.633 373.961 165.81 C 375.799 176.93 374.474 189.841 374.474 201.2 C 374.474 202.357 374.289 216.101 372.423 216.101 C 365.327 216.101 358.822 215.709 351.91 213.618 C 344.594 211.403 339.576 207.409 332.424 207.409 C 332.424 208.223 332.424 210.513 332.424 210.513 Z" style="stroke: rgb(10, 10, 10); fill: url(#gradient-2);"/>
  <text x="237.706" y="194.338" style="fill: url(#gradient-3); font-family: Aldrich; font-size: 36px; text-transform: capitalize; white-space: pre;">Things</text>
</svg>